<svg width="38" height="25" viewBox="0 0 38 25" fill="none" xmlns="http://www.w3.org/2000/svg">
<path d="M19.5291 1.43848C19.5291 2.26743 18.9196 3.38082 17.7006 4.77867C17.3105 5.21752 16.3596 6.16838 14.848 7.63124C16.0833 8.2814 17.0992 9.1266 17.8956 10.1669C18.8058 11.3371 19.2609 12.5643 19.2609 13.8484C19.2609 15.1487 18.9603 16.4246 18.3589 17.6762C17.6599 19.1228 16.7578 20.0168 15.6526 20.3581C15.5388 20.3906 15.3763 20.4312 15.165 20.48C15.1162 20.5125 14.5961 20.8132 13.6046 21.3821C12.8569 21.7884 12.3286 21.9916 12.0198 21.9916C11.2396 21.9916 10.1181 21.7316 8.65524 21.2114C7.54997 20.7726 6.4447 20.3418 5.33943 19.9192C4.42921 19.5616 3.84406 19.3829 3.584 19.3829C3.42146 19.3829 3.05575 19.6592 2.48686 20.2118C1.93422 20.7482 1.6579 21.0976 1.6579 21.2602C1.6579 21.3415 1.70667 21.4634 1.80419 21.6259C1.91797 21.8047 1.97486 21.9266 1.97486 21.9916C1.97486 22.8206 1.67416 23.235 1.07276 23.235C0.78019 23.235 0.528254 23.0888 0.316952 22.7962C0.105651 22.5036 0 22.2029 0 21.8941C0 21.4552 0.178794 21.0164 0.536381 20.5775C0.633905 20.48 0.991492 20.1468 1.60914 19.5779C1.88546 19.3016 3.62463 17.5624 6.82667 14.3604C6.82667 14.2629 6.68038 14.1572 6.38781 14.0434C5.52635 13.7183 4.78679 13.0682 4.16914 12.093C3.56775 11.1177 3.26705 10.1506 3.26705 9.19162C3.26705 7.66374 3.77905 6.24152 4.80305 4.92495C5.69702 3.77092 6.88355 2.81194 8.36267 2.048C8.73651 1.8367 9.10222 1.6254 9.45981 1.4141C10.045 1.10527 10.3944 0.950856 10.5082 0.950856C11.2071 0.950856 12.3043 1.38159 13.7996 2.24305C15.3112 3.08825 16.3921 3.51086 17.0423 3.51086C17.3349 3.51086 17.6599 3.30768 18.0175 2.90133C18.3914 2.49498 18.5783 2.14552 18.5783 1.85295C18.5783 1.6579 18.432 1.47911 18.1394 1.31657C17.8469 1.13778 17.7006 0.975237 17.7006 0.828952C17.7006 0.276317 17.9525 0 18.4564 0C19.1716 0 19.5291 0.479492 19.5291 1.43848ZM10.557 10.7032V4.82743C9.17536 4.03098 8.192 3.63276 7.60686 3.63276C7.18425 3.63276 6.8673 4.10413 6.656 5.04686C6.52597 5.68076 6.46095 6.3553 6.46095 7.07048C6.46095 7.52559 6.49346 7.88317 6.55848 8.14324C6.76978 9.03721 7.18425 9.82552 7.8019 10.5082C7.96444 10.687 8.27327 10.8983 8.72838 11.1421C9.18349 11.3696 9.52482 11.4834 9.75238 11.4834C9.78489 11.4834 10.0531 11.2234 10.557 10.7032ZM10.557 18.2613V11.8491C9.5492 12.8894 8.01321 14.4254 5.94895 16.4571C5.96521 16.4896 5.98959 16.5384 6.02209 16.6034C6.18463 16.7497 6.68851 16.9529 7.53371 17.2129C8.60648 17.5543 9.18349 17.7412 9.26476 17.7737C9.8174 17.985 10.2481 18.1476 10.557 18.2613ZM11.2152 11.3859V18.4808C12.0767 18.7408 13.3608 19.1716 15.0674 19.7729C15.555 19.3666 15.8801 18.9034 16.0427 18.3832C16.1564 18.0094 16.2133 17.4486 16.2133 16.7009C16.2133 15.8557 15.7907 14.6855 14.9455 13.1901C14.019 11.581 13.1738 10.7764 12.4099 10.7764C12.0686 10.7764 11.6703 10.9796 11.2152 11.3859ZM11.2396 5.19314V10.2156C11.8573 9.56546 12.7919 8.52521 14.0434 7.09486C13.1007 6.39594 12.1661 5.76203 11.2396 5.19314Z" fill="#91919A"/>
<path d="M37.5639 20.9771C36.9463 21.5785 36.6131 21.9117 36.5643 21.9768C36.4343 22.2368 36.3124 22.4888 36.1986 22.7326C36.0198 23.0577 35.8085 23.2202 35.5647 23.2202C35.3209 23.2202 34.9145 23.0902 34.3456 22.8301C33.7768 22.5538 33.3298 22.4156 33.0047 22.4156L22.6915 22.3912C21.7976 22.3912 21.3506 22.7001 21.3506 23.3177C21.3506 23.5453 21.5213 23.8053 21.8626 24.0979C22.2039 24.3742 22.3746 24.553 22.3746 24.6343C22.3746 24.8781 22.2364 25 21.9601 25C21.7651 25 21.1555 24.5855 20.1315 23.7566C19.1075 22.9114 18.5955 22.4156 18.5955 22.2693C18.5955 21.8305 18.815 21.2372 19.2538 20.4895C19.7252 19.6606 20.1722 19.2461 20.5948 19.2461H32.2976C33.4911 19.2461 39.2254 18.5538 37.5639 20.9771Z" fill="#91919A"/>
</svg>
