<svg width="18" height="21" viewBox="0 0 18 21" fill="none" xmlns="http://www.w3.org/2000/svg">
<path d="M16.8269 15.6303C16.5245 16.329 16.1665 16.9722 15.7517 17.5636C15.1862 18.3697 14.7233 18.9277 14.3665 19.2376C13.8134 19.7462 13.2209 20.0067 12.5863 20.0215C12.1308 20.0215 11.5814 19.8919 10.9419 19.6289C10.3004 19.3672 9.71073 19.2376 9.17161 19.2376C8.60617 19.2376 7.9998 19.3672 7.35117 19.6289C6.70155 19.8919 6.17825 20.0289 5.77814 20.0425C5.16964 20.0684 4.56311 19.8005 3.9577 19.2376C3.5713 18.9006 3.08798 18.3228 2.50898 17.5043C1.88777 16.6303 1.37704 15.6167 0.97693 14.4612C0.548426 13.2131 0.333618 12.0045 0.333618 10.8344C0.333618 9.49405 0.623238 8.33805 1.20334 7.36931C1.65925 6.59118 2.26578 5.9774 3.02489 5.5268C3.784 5.0762 4.60423 4.84657 5.48753 4.83188C5.97085 4.83188 6.60467 4.98138 7.3923 5.2752C8.17767 5.57001 8.68198 5.71951 8.90311 5.71951C9.06842 5.71951 9.62861 5.54469 10.5784 5.19619C11.4765 4.87299 12.2345 4.73916 12.8554 4.79188C14.5381 4.92768 15.8023 5.59099 16.643 6.78599C15.1381 7.69787 14.3937 8.97493 14.4085 10.6133C14.422 11.8894 14.885 12.9514 15.7949 13.7945C16.2072 14.1859 16.6677 14.4884 17.18 14.7032C17.0689 15.0254 16.9516 15.334 16.8269 15.6303ZM12.9678 0.444364C12.9678 1.44459 12.6024 2.3785 11.874 3.24292C10.995 4.27054 9.93186 4.86435 8.77892 4.77065C8.76423 4.65065 8.75567 4.52436 8.75567 4.39165C8.75567 3.43143 9.17373 2.40381 9.91605 1.56359C10.2867 1.13817 10.758 0.784437 11.3295 0.502262C11.8999 0.224296 12.4394 0.0705746 12.9468 0.0442505C12.9616 0.177965 12.9678 0.311688 12.9678 0.444351V0.444364Z" fill="#F1F1F8"/>
</svg>
