<svg width="20" height="14" viewBox="0 0 20 14" fill="none" xmlns="http://www.w3.org/2000/svg">
<path fill-rule="evenodd" clip-rule="evenodd" d="M17.8139 0.417994C18.6744 0.647983 19.352 1.3256 19.582 2.18611C20 3.74581 20 7.00003 20 7.00003C20 7.00003 20 10.2543 19.582 11.8138C19.352 12.6743 18.6744 13.3521 17.8139 13.5821C16.254 13.9999 9.99992 13.9999 9.99992 13.9999C9.99992 13.9999 3.74581 13.9999 2.18594 13.5821C1.3256 13.3521 0.647817 12.6743 0.417829 11.8138C0 10.2543 0 7.00003 0 7.00003C0 7.00003 0 3.74581 0.417829 2.18611C0.647817 1.3256 1.3256 0.647983 2.18594 0.417994C3.74581 0 9.99992 0 9.99992 0C9.99992 0 16.254 0 17.8139 0.417994ZM13.1922 7.01343L7.9961 10.0134V4.01337L13.1922 7.01343Z" fill="#F1F1F8"/>
</svg>
