<svg width="19" height="19" viewBox="0 0 19 19" fill="none" xmlns="http://www.w3.org/2000/svg">
<path d="M14.9754 8.02292C12.0743 6.30009 7.28889 6.14164 4.51948 6.98229C4.07476 7.11718 3.60447 6.86614 3.4697 6.42143C3.33494 5.97649 3.58577 5.5065 4.03081 5.3713C7.20992 4.4062 12.4948 4.59267 15.8346 6.57521C16.2346 6.81259 16.3658 7.32924 16.1287 7.72856C15.8914 8.12861 15.3744 8.26046 14.9754 8.02292ZM14.8803 10.5748C14.6768 10.905 14.2449 11.0086 13.9152 10.8058C11.4965 9.31914 7.80841 8.88855 4.947 9.75699C4.5759 9.86921 4.18396 9.65996 4.07132 9.28961C3.95945 8.91853 4.1688 8.52731 4.53914 8.41448C7.80796 7.42262 11.8716 7.90299 14.6495 9.61007C14.9793 9.81319 15.0831 10.2454 14.8803 10.5748ZM13.7791 13.0255C13.6173 13.2907 13.272 13.3738 13.0077 13.2121C10.8942 11.9204 8.23411 11.6287 5.10133 12.3443C4.79944 12.4135 4.49863 12.2243 4.42974 11.9225C4.36064 11.6207 4.54903 11.3197 4.85167 11.2509C8.2799 10.4672 11.2207 10.8044 13.593 12.254C13.8574 12.4155 13.9407 12.761 13.7791 13.0255ZM9.65155 0.0442505C4.68101 0.0442505 0.651489 4.07369 0.651489 9.04414C0.651489 14.0151 4.68101 18.0443 9.65155 18.0443C14.6222 18.0443 18.6515 14.0151 18.6515 9.04414C18.6515 4.07369 14.6222 0.0442505 9.65155 0.0442505Z" fill="#F1F1F8"/>
</svg>
