<svg width="24" height="25" viewBox="0 0 24 25" fill="none" xmlns="http://www.w3.org/2000/svg">
<path d="M12 0.5C8.741 0.5 8.33234 0.513814 7.05242 0.572213C5.77516 0.630517 4.90283 0.833343 4.1395 1.13001C3.35039 1.43668 2.68118 1.847 2.01406 2.51411C1.34695 3.18123 0.936629 3.85044 0.629961 4.63954C0.333296 5.40283 0.13047 6.27516 0.0721656 7.55242C0.0137662 8.83234 0 9.241 0 12.5C0 15.759 0.0137662 16.1677 0.0721656 17.4476C0.13047 18.7248 0.333296 19.5972 0.629961 20.3605C0.936629 21.1496 1.34695 21.8188 2.01406 22.4859C2.68118 23.1531 3.35039 23.5634 4.1395 23.87C4.90283 24.1667 5.77516 24.3695 7.05242 24.4278C8.33234 24.4862 8.741 24.5 12 24.5C15.259 24.5 15.6677 24.4862 16.9476 24.4278C18.2248 24.3695 19.0972 24.1667 19.8605 23.87C20.6496 23.5634 21.3188 23.1531 21.9859 22.4859C22.6531 21.8188 23.0634 21.1496 23.37 20.3605C23.6667 19.5972 23.8695 18.7248 23.9278 17.4476C23.9862 16.1677 24 15.759 24 12.5C24 9.241 23.9862 8.83234 23.9278 7.55242C23.8695 6.27516 23.6667 5.40283 23.37 4.63954C23.0634 3.85044 22.6531 3.18123 21.9859 2.51411C21.3188 1.847 20.6496 1.43668 19.8605 1.13001C19.0972 0.833343 18.2248 0.630517 16.9476 0.572213C15.6677 0.513814 15.259 0.5 12 0.5ZM12 2.66221C15.2041 2.66221 15.5837 2.6744 16.849 2.73213C18.019 2.78553 18.6544 2.98102 19.0773 3.14531C19.6374 3.363 20.0371 3.62308 20.457 4.04298C20.877 4.46287 21.137 4.86266 21.3547 5.42274C21.519 5.84559 21.7145 6.48098 21.7679 7.65097C21.8256 8.91632 21.8378 9.29587 21.8378 12.5C21.8378 15.7041 21.8256 16.0837 21.7679 17.349C21.7145 18.519 21.519 19.1544 21.3547 19.5773C21.137 20.1374 20.877 20.5371 20.457 20.957C20.0371 21.377 19.6374 21.637 19.0773 21.8547C18.6544 22.019 18.019 22.2145 16.849 22.2679C15.5839 22.3256 15.2044 22.3378 12 22.3378C8.79563 22.3378 8.41618 22.3256 7.15097 22.2679C5.98098 22.2145 5.34559 22.019 4.92274 21.8547C4.36261 21.637 3.96287 21.377 3.54293 20.957C3.12303 20.5371 2.86295 20.1374 2.64531 19.5773C2.48097 19.1544 2.28548 18.519 2.23209 17.349C2.17435 16.0837 2.16216 15.7041 2.16216 12.5C2.16216 9.29587 2.17435 8.91632 2.23209 7.65097C2.28548 6.48098 2.48097 5.84559 2.64531 5.42274C2.86295 4.86266 3.12303 4.46287 3.54293 4.04298C3.96287 3.62308 4.36261 3.363 4.92274 3.14531C5.34559 2.98102 5.98098 2.78553 7.15097 2.73213C8.41632 2.6744 8.79587 2.66221 12 2.66221Z" fill="white"/>
<path d="M12 16.4999C9.79078 16.4999 7.99993 14.7091 7.99993 12.5C7.99993 10.2908 9.79078 8.49993 12 8.49993C14.2091 8.49993 15.9999 10.2908 15.9999 12.5C15.9999 14.7091 14.2091 16.4999 12 16.4999ZM12 6.33777C8.59665 6.33777 5.83777 9.09665 5.83777 12.5C5.83777 15.9032 8.59665 18.6621 12 18.6621C15.4032 18.6621 18.1621 15.9032 18.1621 12.5C18.1621 9.09665 15.4032 6.33777 12 6.33777Z" fill="white"/>
<path d="M19.8457 6.0899C19.8457 6.8852 19.2009 7.52988 18.4056 7.52988C17.6104 7.52988 16.9657 6.8852 16.9657 6.0899C16.9657 5.29461 17.6104 4.64993 18.4056 4.64993C19.2009 4.64993 19.8457 5.29461 19.8457 6.0899Z" fill="white"/>
</svg>
