<svg width="1314" height="350" viewBox="0 0 1314 350" fill="none" xmlns="http://www.w3.org/2000/svg">
<path d="M549.328 145V142.975L551.961 142.57C557.429 141.355 561.682 139.127 561.682 131.229V17.0096C561.682 9.31402 557.632 6.47879 551.961 5.66872L549.328 5.26368V3.23852H594.287V5.26368L591.452 5.66872C586.389 6.27626 581.934 9.1115 581.934 17.0096V130.824C581.934 139.33 584.971 141.76 592.869 141.76H597.527C616.766 141.76 626.487 132.444 632.765 101.661H634.993L632.158 145H549.328Z" fill="#91919A"/>
<path d="M640.312 145V142.975L642.945 142.57C648.008 141.557 652.26 139.127 652.26 131.229V17.0096C652.26 8.90898 648.008 6.27626 642.945 5.66872L640.312 5.26368V3.23852H684.461V5.26368L681.828 5.66872C676.967 6.27626 672.512 8.90898 672.512 17.0096V131.229C672.512 139.127 676.765 141.557 681.828 142.57L684.461 142.975V145H640.312Z" fill="#91919A"/>
<path d="M732.052 147.835C716.458 147.835 701.269 141.355 694.181 135.887L695.194 95.586H697.422C701.674 123.331 712.408 145 733.47 145C747.848 145 757.164 132.039 757.164 114.825C757.164 96.1935 744.81 89.713 731.242 82.8275L722.939 78.5746C706.737 70.2715 695.194 60.3481 695.194 39.489C695.194 16.6046 712.61 0.40329 733.065 0.40329C747.443 0.40329 758.177 4.85865 764.657 8.30144L764.05 43.5393H761.619C757.164 17.4147 748.456 3.23852 731.849 3.23852C719.091 3.23852 710.383 14.782 710.383 29.7682C710.383 44.3493 718.281 51.6399 734.28 59.9431L742.178 63.9934C761.417 73.7142 772.15 83.435 772.15 104.699C772.15 128.799 755.746 147.835 732.052 147.835Z" fill="#91919A"/>
<path d="M801.089 145V142.975L803.722 142.57C808.988 141.355 813.443 139.33 813.443 131.229V6.47879H807.367C790.154 6.47879 781.85 15.187 777.8 39.489H775.572L777.8 3.23852H869.338L871.565 39.489H869.135C865.287 15.592 857.186 6.47879 839.973 6.47879H833.695V131.229C833.695 139.33 838.15 141.557 843.415 142.57L845.846 142.975V145H801.089Z" fill="#91919A"/>
<path d="M877.429 145V142.975L880.061 142.57C885.124 141.557 889.782 139.735 889.782 131.229V17.0096C889.782 9.31402 885.732 6.47879 880.061 5.66872L877.429 5.26368V3.23852H960.258V37.4638H958.03C953.98 14.5794 946.892 6.47879 929.475 6.47879H909.831V69.8664H924.21C934.943 69.8664 940.816 64.8035 943.652 51.0324H945.879V93.9659H943.652C940.816 80.5998 935.348 73.1067 924.21 73.1067H909.831V130.824C909.831 139.33 913.072 141.76 920.767 141.76H929.07C948.917 141.76 957.018 135.684 963.903 104.699H966.131L963.903 145H877.429Z" fill="#91919A"/>
<path d="M1059.83 145.81L988.343 20.6549V126.166C988.343 137.102 991.786 141.355 998.874 142.57L1001.3 142.975V145H971.331V142.975L973.964 142.57C980.445 141.557 984.495 138.114 984.495 126.166V17.0096C984.495 9.31402 980.445 6.47879 974.572 5.66872L971.939 5.26368V3.23852H1000.29L1060.03 108.345V22.0725C1060.03 10.7316 1056.39 6.6813 1049.5 5.66872L1047.07 5.26368V3.23852H1077.05V5.26368L1074.61 5.66872C1067.73 6.6813 1064.08 10.5291 1064.08 22.0725V145.81H1059.83Z" fill="#91919A"/>
<path d="M1128.6 145V142.975L1131.23 142.57C1136.49 141.355 1140.95 139.33 1140.95 131.229V6.47879H1134.87C1117.66 6.47879 1109.36 15.187 1105.31 39.489H1103.08L1105.31 3.23852H1196.84L1199.07 39.489H1196.64C1192.79 15.592 1184.69 6.47879 1167.48 6.47879H1161.2V131.229C1161.2 139.33 1165.66 141.557 1170.92 142.57L1173.35 142.975V145H1128.6Z" fill="#91919A"/>
<path d="M1257.88 147.835C1227.5 147.835 1203.2 118.47 1203.2 74.5243C1203.2 30.5782 1227.3 0.40329 1257.88 0.40329C1287.85 0.40329 1312.15 29.5657 1312.15 73.7142C1312.15 117.66 1288.05 147.835 1257.88 147.835ZM1225.68 70.2714C1225.68 109.965 1237.42 145 1259.09 145C1277.32 145 1289.88 118.47 1289.88 77.9671C1289.88 38.0713 1277.93 3.23852 1256.46 3.23852C1238.03 3.23852 1225.68 29.7682 1225.68 70.2714Z" fill="#91919A"/>
<path d="M37.8796 349.835C22.2858 349.835 7.09711 343.355 0.0090332 337.887L1.02162 297.586H3.2493C7.50214 325.331 18.2355 347 39.2972 347C53.6759 347 62.9916 334.039 62.9916 316.825C62.9916 298.194 50.6381 291.713 37.0695 284.827L28.7664 280.575C12.5651 272.271 1.02162 262.348 1.02162 241.489C1.02162 218.605 18.438 202.403 38.8922 202.403C53.2708 202.403 64.0042 206.859 70.4847 210.301L69.8772 245.539H67.447C62.9916 219.415 54.2834 205.239 37.6771 205.239C24.9185 205.239 16.2103 216.782 16.2103 231.768C16.2103 246.349 24.1085 253.64 40.1073 261.943L48.0054 265.993C67.2445 275.714 77.9778 285.435 77.9778 306.699C77.9778 330.799 61.574 349.835 37.8796 349.835Z" fill="#91919A"/>
<path d="M84.1736 347V344.975L86.8063 344.57C91.8692 343.557 96.5271 341.735 96.5271 333.229V219.01C96.5271 211.314 92.4767 208.479 86.8063 207.669L84.1736 207.264V205.239H167.003V239.464H164.775C160.725 216.579 153.637 208.479 136.22 208.479H116.576V271.866H130.955C141.688 271.866 147.561 266.803 150.396 253.032H152.624V295.966H150.396C147.561 282.6 142.093 275.107 130.955 275.107H116.576V332.824C116.576 341.33 119.816 343.76 127.512 343.76H135.815C155.662 343.76 163.762 337.684 170.648 306.699H172.876L170.648 347H84.1736Z" fill="#91919A"/>
<path d="M266.576 347.81L195.088 222.655V328.166C195.088 339.102 198.53 343.355 205.619 344.57L208.049 344.975V347H178.076V344.975L180.709 344.57C187.19 343.557 191.24 340.114 191.24 328.166V219.01C191.24 211.314 187.19 208.479 181.317 207.669L178.684 207.264V205.239H207.036L266.778 310.345V224.073C266.778 212.732 263.133 208.681 256.248 207.669L253.817 207.264V205.239H283.79V207.264L281.36 207.669C274.474 208.681 270.829 212.529 270.829 224.073V347.81H266.576Z" fill="#91919A"/>
<path d="M313.982 347V344.975L316.615 344.57C321.88 343.355 326.336 341.33 326.336 333.229V208.479H320.26C303.046 208.479 294.743 217.187 290.693 241.489H288.465L290.693 205.239H382.23L384.458 241.489H382.028C378.18 217.592 370.079 208.479 352.865 208.479H346.587V333.229C346.587 341.33 351.043 343.557 356.308 344.57L358.738 344.975V347H313.982Z" fill="#91919A"/>
<path d="M390.726 347V344.975L393.359 344.57C398.422 343.557 402.675 341.127 402.675 333.229V219.01C402.675 210.909 398.422 208.276 393.359 207.669L390.726 207.264V205.239H434.875V207.264L432.242 207.669C427.382 208.276 422.927 210.909 422.927 219.01V333.229C422.927 341.127 427.179 343.557 432.242 344.57L434.875 344.975V347H390.726Z" fill="#91919A"/>
<path d="M441.346 347V344.975L443.979 344.57C449.042 343.557 453.699 341.735 453.699 333.229V219.01C453.699 211.314 449.649 208.479 443.979 207.669L441.346 207.264V205.239H524.175V239.464H521.948C517.897 216.579 510.809 208.479 493.393 208.479H473.749V271.866H488.127C498.861 271.866 504.734 266.803 507.569 253.032H509.797V295.966H507.569C504.734 282.6 499.266 275.107 488.127 275.107H473.749V332.824C473.749 341.33 476.989 343.76 484.685 343.76H492.988C512.834 343.76 520.935 337.684 527.82 306.699H530.048L527.82 347H441.346Z" fill="#91919A"/>
<path d="M623.748 347.81L552.26 222.655V328.166C552.26 339.102 555.703 343.355 562.791 344.57L565.221 344.975V347H535.249V344.975L537.881 344.57C544.362 343.557 548.412 340.114 548.412 328.166V219.01C548.412 211.314 544.362 208.479 538.489 207.669L535.856 207.264V205.239H564.209L623.951 310.345V224.073C623.951 212.732 620.306 208.681 613.42 207.669L610.99 207.264V205.239H640.962V207.264L638.532 207.669C631.647 208.681 628.001 212.529 628.001 224.073V347.81H623.748Z" fill="#91919A"/>
<path d="M671.155 347V344.975L673.787 344.57C679.053 343.355 683.508 341.33 683.508 333.229V208.479H677.433C660.219 208.479 651.916 217.187 647.865 241.489H645.638L647.865 205.239H739.403L741.63 241.489H739.2C735.352 217.592 727.252 208.479 710.038 208.479H703.76V333.229C703.76 341.33 708.215 343.557 713.481 344.57L715.911 344.975V347H671.155Z" fill="#91919A"/>
<path d="M810.369 349.835C794.775 349.835 779.586 343.355 772.498 337.887L773.511 297.586H775.738C779.991 325.331 790.725 347 811.786 347C826.165 347 835.481 334.039 835.481 316.825C835.481 298.194 823.127 291.713 809.559 284.827L801.256 280.575C785.054 272.271 773.511 262.348 773.511 241.489C773.511 218.605 790.927 202.403 811.381 202.403C825.76 202.403 836.493 206.859 842.974 210.301L842.366 245.539H839.936C835.481 219.415 826.773 205.239 810.166 205.239C797.408 205.239 788.7 216.782 788.7 231.768C788.7 246.349 796.598 253.64 812.596 261.943L820.495 265.993C839.734 275.714 850.467 285.435 850.467 306.699C850.467 330.799 834.063 349.835 810.369 349.835Z" fill="#91919A"/>
<path d="M856.663 347V344.975L859.498 344.57C864.561 343.557 869.016 341.33 869.016 333.229V219.01C869.016 210.909 864.561 208.276 859.498 207.669L856.663 207.264V205.239H907.697C927.544 205.239 946.175 217.592 946.175 244.729C946.175 271.056 928.759 285.03 908.507 285.03H889.065V333.229C889.065 341.127 893.521 343.355 900.609 344.57L903.444 344.975V347H856.663ZM889.065 281.79H903.242C918.43 281.79 925.721 270.854 925.721 246.147C925.721 217.795 914.987 208.479 901.824 208.479H889.065V281.79Z" fill="#91919A"/>
<path d="M929.95 347V344.975L931.975 344.57C937.038 343.76 941.291 340.317 945.341 326.748L982.604 204.226H990.3L1027.16 327.963C1030.2 338.089 1033.03 343.355 1039.31 344.57L1041.13 344.975V347H994.958V344.975L997.59 344.57C1006.1 343.152 1009.94 340.114 1006.5 328.368L996.78 295.358H958.505L948.784 327.761C945.139 340.519 949.797 342.95 958.1 344.57L960.53 344.975V347H929.95ZM959.517 292.118H995.97L977.946 230.553L959.517 292.118Z" fill="#91919A"/>
<path d="M1089.35 349.835C1059.17 349.835 1035.89 320.47 1035.89 276.322C1035.89 232.376 1061.4 202.403 1091.98 202.403C1102.92 202.403 1115.27 205.239 1126.41 212.124V246.957H1124.38C1118.51 213.947 1105.55 205.239 1091.98 205.239C1070.92 205.239 1058.36 232.376 1058.36 271.866C1058.36 309.332 1071.33 339.102 1096.23 339.102C1110.41 339.102 1120.33 330.191 1128.84 311.56L1130.66 312.37C1123.57 333.026 1110.61 349.835 1089.35 349.835Z" fill="#91919A"/>
<path d="M1136.31 347V344.975L1138.94 344.57C1144.01 343.557 1148.66 341.735 1148.66 333.229V219.01C1148.66 211.314 1144.61 208.479 1138.94 207.669L1136.31 207.264V205.239H1219.14V239.464H1216.91C1212.86 216.579 1205.77 208.479 1188.36 208.479H1168.71V271.866H1183.09C1193.82 271.866 1199.7 266.803 1202.53 253.032H1204.76V295.966H1202.53C1199.7 282.6 1194.23 275.107 1183.09 275.107H1168.71V332.824C1168.71 341.33 1171.95 343.76 1179.65 343.76H1187.95C1207.8 343.76 1215.9 337.684 1222.78 306.699H1225.01L1222.78 347H1136.31Z" fill="#91919A"/>
<path d="M1273.35 349.835C1257.75 349.835 1242.57 343.355 1235.48 337.887L1236.49 297.586H1238.72C1242.97 325.331 1253.7 347 1274.77 347C1289.14 347 1298.46 334.039 1298.46 316.825C1298.46 298.194 1286.11 291.713 1272.54 284.827L1264.23 280.575C1248.03 272.271 1236.49 262.348 1236.49 241.489C1236.49 218.605 1253.91 202.403 1274.36 202.403C1288.74 202.403 1299.47 206.859 1305.95 210.301L1305.35 245.539H1302.92C1298.46 219.415 1289.75 205.239 1273.15 205.239C1260.39 205.239 1251.68 216.782 1251.68 231.768C1251.68 246.349 1259.58 253.64 1275.58 261.943L1283.47 265.993C1302.71 275.714 1313.45 285.435 1313.45 306.699C1313.45 330.799 1297.04 349.835 1273.35 349.835Z" fill="#91919A"/>
</svg>
