<svg width="49" height="34" viewBox="0 0 49 34" fill="none" xmlns="http://www.w3.org/2000/svg">
<path fill-rule="evenodd" clip-rule="evenodd" d="M43.5033 1.00319C45.5685 1.55516 47.1949 3.18143 47.7468 5.24666C48.75 8.98995 48.75 16.8001 48.75 16.8001C48.75 16.8001 48.75 24.6102 47.7468 28.3531C47.1949 30.4184 45.5685 32.045 43.5033 32.597C39.7597 33.5997 24.7498 33.5997 24.7498 33.5997C24.7498 33.5997 9.73995 33.5997 5.99627 32.597C3.93143 32.045 2.30476 30.4184 1.75279 28.3531C0.75 24.6102 0.75 16.8001 0.75 16.8001C0.75 16.8001 0.75 8.98995 1.75279 5.24666C2.30476 3.18143 3.93143 1.55516 5.99627 1.00319C9.73995 0 24.7498 0 24.7498 0C24.7498 0 39.7597 0 43.5033 1.00319ZM32.4112 16.8322L19.9406 24.0322V9.6321L32.4112 16.8322Z" fill="#91919A"/>
</svg>
