<svg width="49" height="48" viewBox="0 0 49 48" fill="none" xmlns="http://www.w3.org/2000/svg">
<path d="M38.947 21.2763C31.2108 16.6821 18.4497 16.2596 11.0646 18.5013C9.87873 18.861 8.62462 18.1916 8.26524 17.0057C7.90586 15.8192 8.57475 14.5659 9.76151 14.2054C18.2391 11.6318 32.3322 12.129 41.2382 17.4158C42.3048 18.0488 42.6548 19.4265 42.0225 20.4914C41.3898 21.5582 40.0111 21.9098 38.947 21.2763ZM38.6936 28.0812C38.1508 28.9618 36.9992 29.2381 36.1198 28.6974C29.67 24.7329 19.8351 23.5847 12.2047 25.9005C11.2151 26.1997 10.1699 25.6417 9.86955 24.6541C9.57122 23.6646 10.1295 22.6214 11.1171 22.3205C19.8339 19.6755 30.6702 20.9565 38.078 25.5087C38.9575 26.0503 39.2344 27.2028 38.6936 28.0812ZM35.7569 34.6163C35.3255 35.3236 34.4047 35.5451 33.7 35.114C28.0639 31.6696 20.9703 30.8917 12.6162 32.7998C11.8112 32.9845 11.009 32.4801 10.8253 31.675C10.6411 30.8703 11.1435 30.0678 11.9505 29.8842C21.0924 27.7942 28.9347 28.6936 35.2606 32.5591C35.9659 32.9899 36.1879 33.9112 35.7569 34.6163ZM24.7502 0C11.4954 0 0.75 10.7451 0.75 23.9995C0.75 37.2554 11.4954 47.9997 24.7502 47.9997C38.0051 47.9997 48.75 37.2554 48.75 23.9995C48.75 10.7451 38.0051 0 24.7502 0Z" fill="#91919A"/>
</svg>
