<svg width="41" height="48" viewBox="0 0 41 48" fill="none" xmlns="http://www.w3.org/2000/svg">
<path d="M39.6183 37.4065C38.8925 39.0835 38.0333 40.6272 37.0377 42.0465C35.6807 43.9812 34.5696 45.3204 33.7134 46.0641C32.3859 47.2848 30.9638 47.9099 29.4408 47.9455C28.3476 47.9455 27.0291 47.6344 25.4943 47.0032C23.9546 46.3752 22.5395 46.0641 21.2456 46.0641C19.8886 46.0641 18.4333 46.3752 16.8766 47.0032C15.3175 47.6344 14.0615 47.9632 13.1013 47.9959C11.6409 48.058 10.1852 47.4151 8.73222 46.0641C7.80485 45.2553 6.64489 43.8685 5.2553 41.9041C3.76438 39.8065 2.53864 37.374 1.57837 34.6008C0.549963 31.6053 0.0344238 28.7046 0.0344238 25.8964C0.0344238 22.6795 0.729513 19.9051 2.12176 17.5801C3.21595 15.7126 4.67161 14.2396 6.49348 13.1581C8.31534 12.0767 10.2839 11.5256 12.4038 11.4903C13.5638 11.4903 15.085 11.8491 16.9753 12.5543C18.8602 13.2618 20.0705 13.6206 20.6012 13.6206C20.998 13.6206 22.3424 13.2011 24.6218 12.3647C26.7773 11.589 28.5965 11.2678 30.0867 11.3943C34.1252 11.7202 37.1592 13.3122 39.1769 16.1802C35.5652 18.3687 33.7785 21.4336 33.8141 25.3657C33.8466 28.4284 34.9578 30.9771 37.1414 33.0007C38.1309 33.94 39.2361 34.6659 40.4657 35.1814C40.1991 35.9547 39.9176 36.6955 39.6183 37.4065ZM30.3564 0.960272C30.3564 3.36082 29.4794 5.60219 27.7313 7.6768C25.6217 10.1431 23.0702 11.5682 20.3032 11.3433C20.2679 11.0554 20.2474 10.7523 20.2474 10.4337C20.2474 8.12923 21.2507 5.66294 23.0322 3.64641C23.9217 2.6254 25.0529 1.77645 26.4246 1.09923C27.7935 0.432109 29.0883 0.063178 30.306 0C30.3416 0.320916 30.3564 0.641851 30.3564 0.96024V0.960272Z" fill="#91919A"/>
</svg>
