<svg width="1315" height="148" viewBox="0 0 1315 148" fill="none" xmlns="http://www.w3.org/2000/svg">
<path d="M38.5542 147.835C22.9604 147.835 7.77167 141.355 0.683594 135.887L1.69618 95.586H3.92386C8.1767 123.331 18.9101 145 39.9718 145C54.3504 145 63.6662 132.039 63.6662 114.825C63.6662 96.1935 51.3127 89.713 37.7441 82.8275L29.4409 78.5746C13.2396 70.2715 1.69618 60.3481 1.69618 39.489C1.69618 16.6046 19.1126 0.40329 39.5667 0.40329C53.9454 0.40329 64.6788 4.85865 71.1593 8.30144L70.5518 43.5393H68.1216C63.6662 17.4147 54.958 3.23852 38.3516 3.23852C25.5931 3.23852 16.8849 14.782 16.8849 29.7682C16.8849 44.3493 24.783 51.6399 40.7818 59.9431L48.68 63.9934C67.919 73.7142 78.6524 83.435 78.6524 104.699C78.6524 128.799 62.2486 147.835 38.5542 147.835Z" fill="#91919A"/>
<path d="M84.8481 145V142.975L87.4808 142.57C92.5438 141.557 97.2016 139.735 97.2016 131.229V17.0096C97.2016 9.31402 93.1513 6.47879 87.4808 5.66872L84.8481 5.26368V3.23852H167.677V37.4638H165.45C161.399 14.5794 154.311 6.47879 136.895 6.47879H117.251V69.8664H131.629C142.363 69.8664 148.236 64.8035 151.071 51.0324H153.299V93.9659H151.071C148.236 80.5998 142.768 73.1067 131.629 73.1067H117.251V130.824C117.251 139.33 120.491 141.76 128.187 141.76H136.49C156.336 141.76 164.437 135.684 171.323 104.699H173.55L171.323 145H84.8481Z" fill="#91919A"/>
<path d="M267.251 145.81L195.762 20.6549V126.166C195.762 137.102 199.205 141.355 206.293 142.57L208.723 142.975V145H178.751V142.975L181.384 142.57C187.864 141.557 191.914 138.114 191.914 126.166V17.0096C191.914 9.31402 187.864 6.47879 181.991 5.66872L179.358 5.26368V3.23852H207.711L267.453 108.345V22.0725C267.453 10.7316 263.808 6.6813 256.922 5.66872L254.492 5.26368V3.23852H284.464V5.26368L282.034 5.66872C275.149 6.6813 271.503 10.5291 271.503 22.0725V145.81H267.251Z" fill="#91919A"/>
<path d="M314.657 145V142.975L317.289 142.57C322.555 141.355 327.01 139.33 327.01 131.229V6.47879H320.935C303.721 6.47879 295.418 15.187 291.367 39.489H289.14L291.367 3.23852H382.905L385.132 39.489H382.702C378.854 15.592 370.754 6.47879 353.54 6.47879H347.262V131.229C347.262 139.33 351.717 141.557 356.983 142.57L359.413 142.975V145H314.657Z" fill="#91919A"/>
<path d="M391.401 145V142.975L394.034 142.57C399.097 141.557 403.349 139.127 403.349 131.229V17.0096C403.349 8.90898 399.097 6.27626 394.034 5.66872L391.401 5.26368V3.23852H435.55V5.26368L432.917 5.66872C428.056 6.27626 423.601 8.90898 423.601 17.0096V131.229C423.601 139.127 427.854 141.557 432.917 142.57L435.55 142.975V145H391.401Z" fill="#91919A"/>
<path d="M442.021 145V142.975L444.653 142.57C449.716 141.557 454.374 139.735 454.374 131.229V17.0096C454.374 9.31402 450.324 6.47879 444.653 5.66872L442.021 5.26368V3.23852H524.85V37.4638H522.622C518.572 14.5794 511.484 6.47879 494.067 6.47879H474.423V69.8664H488.802C499.535 69.8664 505.408 64.8035 508.243 51.0324H510.471V93.9659H508.243C505.408 80.5998 499.94 73.1067 488.802 73.1067H474.423V130.824C474.423 139.33 477.663 141.76 485.359 141.76H493.662C513.509 141.76 521.609 135.684 528.495 104.699H530.723L528.495 145H442.021Z" fill="#91919A"/>
<path d="M624.423 145.81L552.935 20.6549V126.166C552.935 137.102 556.377 141.355 563.466 142.57L565.896 142.975V145H535.923V142.975L538.556 142.57C545.037 141.557 549.087 138.114 549.087 126.166V17.0096C549.087 9.31402 545.037 6.47879 539.164 5.66872L536.531 5.26368V3.23852H564.883L624.625 108.345V22.0725C624.625 10.7316 620.98 6.6813 614.095 5.66872L611.664 5.26368V3.23852H641.637V5.26368L639.207 5.66872C632.321 6.6813 628.676 10.5291 628.676 22.0725V145.81H624.423Z" fill="#91919A"/>
<path d="M671.829 145V142.975L674.462 142.57C679.727 141.355 684.183 139.33 684.183 131.229V6.47879H678.107C660.893 6.47879 652.59 15.187 648.54 39.489H646.312L648.54 3.23852H740.077L742.305 39.489H739.875C736.027 15.592 727.926 6.47879 710.712 6.47879H704.434V131.229C704.434 139.33 708.89 141.557 714.155 142.57L716.585 142.975V145H671.829Z" fill="#91919A"/>
<path d="M811.043 147.835C795.45 147.835 780.261 141.355 773.173 135.887L774.185 95.586H776.413C780.666 123.331 791.399 145 812.461 145C826.84 145 836.155 132.039 836.155 114.825C836.155 96.1935 823.802 89.713 810.233 82.8275L801.93 78.5746C785.729 70.2715 774.185 60.3481 774.185 39.489C774.185 16.6046 791.602 0.40329 812.056 0.40329C826.435 0.40329 837.168 4.85865 843.648 8.30144L843.041 43.5393H840.611C836.155 17.4147 827.447 3.23852 810.841 3.23852C798.082 3.23852 789.374 14.782 789.374 29.7682C789.374 44.3493 797.272 51.6399 813.271 59.9431L821.169 63.9934C840.408 73.7142 851.142 83.435 851.142 104.699C851.142 128.799 834.738 147.835 811.043 147.835Z" fill="#91919A"/>
<path d="M857.337 145V142.975L860.173 142.57C865.235 141.557 869.691 139.33 869.691 131.229V17.0096C869.691 8.90898 865.235 6.27626 860.173 5.66872L857.337 5.26368V3.23852H908.371C928.218 3.23852 946.85 15.592 946.85 42.7292C946.85 69.0563 929.433 83.03 909.182 83.03H889.74V131.229C889.74 139.127 894.195 141.355 901.283 142.57L904.119 142.975V145H857.337ZM889.74 79.7897H903.916C919.105 79.7897 926.395 68.8538 926.395 44.1468C926.395 15.7945 915.662 6.47879 902.498 6.47879H889.74V79.7897Z" fill="#91919A"/>
<path d="M930.625 145V142.975L932.65 142.57C937.713 141.76 941.965 138.317 946.016 124.748L983.279 2.22594H990.974L1027.83 125.963C1030.87 136.089 1033.71 141.355 1039.98 142.57L1041.81 142.975V145H995.632V142.975L998.265 142.57C1006.77 141.152 1010.62 138.114 1007.18 126.368L997.455 93.3583H959.179L949.459 125.761C945.813 138.519 950.471 140.95 958.774 142.57L961.204 142.975V145H930.625ZM960.192 90.118H996.645L978.621 28.5531L960.192 90.118Z" fill="#91919A"/>
<path d="M1090.02 147.835C1059.85 147.835 1036.56 118.47 1036.56 74.3218C1036.56 30.3757 1062.08 0.40329 1092.66 0.40329C1103.59 0.40329 1115.95 3.23852 1127.08 10.1241V44.9569H1125.06C1119.19 11.9467 1106.23 3.23852 1092.66 3.23852C1071.59 3.23852 1059.04 30.3757 1059.04 69.8664C1059.04 107.332 1072 137.102 1096.91 137.102C1111.09 137.102 1121.01 128.191 1129.51 109.56L1131.34 110.37C1124.25 131.026 1111.29 147.835 1090.02 147.835Z" fill="#91919A"/>
<path d="M1136.98 145V142.975L1139.62 142.57C1144.68 141.557 1149.34 139.735 1149.34 131.229V17.0096C1149.34 9.31402 1145.29 6.47879 1139.62 5.66872L1136.98 5.26368V3.23852H1219.81V37.4638H1217.59C1213.54 14.5794 1206.45 6.47879 1189.03 6.47879H1169.39V69.8664H1183.77C1194.5 69.8664 1200.37 64.8035 1203.21 51.0324H1205.43V93.9659H1203.21C1200.37 80.5998 1194.9 73.1067 1183.77 73.1067H1169.39V130.824C1169.39 139.33 1172.63 141.76 1180.32 141.76H1188.63C1208.47 141.76 1216.57 135.684 1223.46 104.699H1225.69L1223.46 145H1136.98Z" fill="#91919A"/>
<path d="M1274.02 147.835C1258.43 147.835 1243.24 141.355 1236.15 135.887L1237.16 95.586H1239.39C1243.65 123.331 1254.38 145 1275.44 145C1289.82 145 1299.13 132.039 1299.13 114.825C1299.13 96.1935 1286.78 89.713 1273.21 82.8275L1264.91 78.5746C1248.71 70.2715 1237.16 60.3481 1237.16 39.489C1237.16 16.6046 1254.58 0.40329 1275.04 0.40329C1289.41 0.40329 1300.15 4.85865 1306.63 8.30144L1306.02 43.5393H1303.59C1299.13 17.4147 1290.43 3.23852 1273.82 3.23852C1261.06 3.23852 1252.35 14.782 1252.35 29.7682C1252.35 44.3493 1260.25 51.6399 1276.25 59.9431L1284.15 63.9934C1303.39 73.7142 1314.12 83.435 1314.12 104.699C1314.12 128.799 1297.72 147.835 1274.02 147.835Z" fill="#91919A"/>
</svg>
