<svg width="960" height="57" viewBox="0 0 960 57" fill="none" xmlns="http://www.w3.org/2000/svg">
<path d="M0 36.6478C0 52.4321 13.362 56.261 35.7882 56.261C56.0266 56.261 69.8574 53.2917 69.8574 38.6794C69.8574 24.8486 56.4954 23.6765 34.9287 22.5044C18.9881 21.5667 15.7062 20.7853 15.7062 16.5657C15.7062 12.5024 18.9881 11.1741 32.8189 11.1741C47.4311 11.1741 53.4479 12.6587 53.4479 18.6755H67.5132C67.5132 5.15726 55.0107 0 34.3817 0C13.909 0 1.64095 3.82887 1.64095 15.8625C1.64095 28.1305 11.0959 31.8812 34.9287 32.9752C52.6665 33.8347 55.7921 34.6161 55.7921 39.1483C55.7921 43.446 51.3382 45.0869 36.5696 45.0869C18.7537 45.0869 14.0652 42.4302 14.0652 36.6478H0Z" fill="#D9D9DE"/>
<path d="M132.777 11.9555V0.781402H74.9536V55.4796H132.777V44.3055H89.0188V33.2096H132.777V23.0514H89.0188V11.9555H132.777Z" fill="#D9D9DE"/>
<path d="M194.326 0.781402V41.8832L156.975 0.781402H137.908V55.4796H151.974V14.4559L189.247 55.4796H208.391V0.781402H194.326Z" fill="#D9D9DE"/>
<path d="M280.255 0.781402H213.054V12.5806H239.622V55.4796H253.687V12.5806H280.255V0.781402Z" fill="#D9D9DE"/>
<path d="M298.944 0.781402H284.879V55.4796H298.944V0.781402Z" fill="#D9D9DE"/>
<path d="M363.001 11.9555V0.781402H305.177V55.4796H363.001V44.3055H319.243V33.2096H363.001V23.0514H319.243V11.9555H363.001Z" fill="#D9D9DE"/>
<path d="M424.549 0.781402V41.8832L387.198 0.781402H368.132V55.4796H382.197V14.4559L419.47 55.4796H438.615V0.781402H424.549Z" fill="#D9D9DE"/>
<path d="M510.479 0.781402H443.278V12.5806H469.846V55.4796H483.911V12.5806H510.479V0.781402Z" fill="#D9D9DE"/>
<path d="M551.331 36.6478C551.331 52.4321 564.693 56.261 587.12 56.261C607.358 56.261 621.189 53.2917 621.189 38.6794C621.189 24.8486 607.827 23.6765 586.26 22.5044C570.319 21.5667 567.038 20.7853 567.038 16.5657C567.038 12.5024 570.319 11.1741 584.15 11.1741C598.763 11.1741 604.779 12.6587 604.779 18.6755H618.845C618.845 5.15726 606.342 0 585.713 0C565.24 0 552.972 3.82887 552.972 15.8625C552.972 28.1305 562.427 31.8812 586.26 32.9752C603.998 33.8347 607.124 34.6161 607.124 39.1483C607.124 43.446 602.669 45.0869 587.901 45.0869C570.085 45.0869 565.397 42.4302 565.397 36.6478H551.331Z" fill="#D9D9DE"/>
<path d="M669.262 0.781402H626.285V55.4796H640.35V40.8674H669.262C681.686 40.8674 690.204 33.0533 690.204 20.8635C690.204 8.67357 681.686 0.781402 669.262 0.781402ZM665.355 29.0682H640.35V12.5806H665.355C669.575 12.5806 676.138 12.5806 676.138 20.8635C676.138 29.0682 669.575 29.0682 665.355 29.0682Z" fill="#D9D9DE"/>
<path d="M742.44 55.4796H757.99L729.703 0.781402H710.715L682.506 55.4796H697.978L703.839 43.8367H736.579L742.44 55.4796ZM709.074 33.3659L720.248 11.1741L731.344 33.3659H709.074Z" fill="#D9D9DE"/>
<path d="M754.313 28.0524C754.313 46.259 764.627 56.261 788.695 56.261C810.496 56.261 821.435 47.9 822.842 32.0375H808.542C807.214 40.9455 800.338 44.4618 788.695 44.4618C774.473 44.4618 768.378 39.3046 768.378 28.0524C768.378 16.8783 774.395 11.7992 788.695 11.7992C800.416 11.7992 807.214 15.2373 808.542 24.0672H822.842C821.435 8.28287 810.496 0 788.695 0C764.627 0 754.313 9.92382 754.313 28.0524Z" fill="#D9D9DE"/>
<path d="M885.793 11.9555V0.781402H827.969V55.4796H885.793V44.3055H842.034V33.2096H885.793V23.0514H842.034V11.9555H885.793Z" fill="#D9D9DE"/>
<path d="M890.143 36.6478C890.143 52.4321 903.505 56.261 925.931 56.261C946.169 56.261 960 53.2917 960 38.6794C960 24.8486 946.638 23.6765 925.071 22.5044C909.131 21.5667 905.849 20.7853 905.849 16.5657C905.849 12.5024 909.131 11.1741 922.962 11.1741C937.574 11.1741 943.591 12.6587 943.591 18.6755H957.656C957.656 5.15726 945.153 0 924.524 0C904.052 0 891.784 3.82887 891.784 15.8625C891.784 28.1305 901.239 31.8812 925.071 32.9752C942.809 33.8347 945.935 34.6161 945.935 39.1483C945.935 43.446 941.481 45.0869 926.712 45.0869C908.896 45.0869 904.208 42.4302 904.208 36.6478H890.143Z" fill="#D9D9DE"/>
</svg>
