<svg width="464" height="109" viewBox="0 0 464 109" fill="none" xmlns="http://www.w3.org/2000/svg">
<path d="M0 33.4277C0 47.8251 12.1454 51.3175 32.5297 51.3175C50.9254 51.3175 63.4969 48.6091 63.4969 35.2808C63.4969 22.6653 51.3515 21.5961 31.7485 20.527C17.2592 19.6717 14.2762 18.959 14.2762 15.1102C14.2762 11.4039 17.2592 10.1922 29.8308 10.1922C43.1126 10.1922 48.5815 11.5464 48.5815 17.0346H61.3662C61.3662 4.70411 50.0021 0 31.2513 0C12.6426 0 1.49154 3.49245 1.49154 14.4687C1.49154 25.6588 10.0856 29.0799 31.7485 30.0778C47.8713 30.8618 50.7123 31.5745 50.7123 35.7085C50.7123 39.6286 46.6639 41.1253 33.24 41.1253C17.0462 41.1253 12.7846 38.702 12.7846 33.4277H0Z" fill="#F1F1F1"/>
<path d="M120.688 10.905V0.712743H68.1291V50.6048H120.688V40.4126H80.9137V30.2916H120.688V21.0259H80.9137V10.905H120.688Z" fill="#F1F1F1"/>
<path d="M176.632 0.712743V38.2031L142.682 0.712743H125.352V50.6048H138.137V13.1858L172.016 50.6048H189.417V0.712743H176.632Z" fill="#F1F1F1"/>
<path d="M254.738 0.712743H193.656V11.4752H217.805V50.6048H230.589V11.4752H254.738V0.712743Z" fill="#F1F1F1"/>
<path d="M271.726 0.712743H258.941V50.6048H271.726V0.712743Z" fill="#F1F1F1"/>
<path d="M329.95 10.905V0.712743H277.391V50.6048H329.95V40.4126H290.176V30.2916H329.95V21.0259H290.176V10.905H329.95Z" fill="#F1F1F1"/>
<path d="M385.895 0.712743V38.2031L351.944 0.712743H334.614V50.6048H347.399V13.1858L381.278 50.6048H398.679V0.712743H385.895Z" fill="#F1F1F1"/>
<path d="M464 0.712743H402.918V11.4752H427.067V50.6048H439.851V11.4752H464V0.712743Z" fill="#F1F1F1"/>
<path d="M1.49154 91.1101C1.49154 105.508 13.6369 109 34.0213 109C52.4169 109 64.9884 106.292 64.9884 92.9633C64.9884 80.3477 52.8431 79.2786 33.24 78.2095C18.7508 77.3542 15.7677 76.6414 15.7677 72.7926C15.7677 69.0864 18.7508 67.8747 31.3223 67.8747C44.6041 67.8747 50.0731 69.2289 50.0731 74.717H62.8577C62.8577 62.3866 51.4936 57.6825 32.7428 57.6825C14.1341 57.6825 2.98312 61.1749 2.98312 72.1511C2.98312 83.3412 11.5772 86.7624 33.24 87.7602C49.3628 88.5443 52.2039 89.257 52.2039 93.3909C52.2039 97.311 48.1554 98.8078 34.7315 98.8078C18.5377 98.8078 14.2762 96.3844 14.2762 91.1101H1.49154Z" fill="#F1F1F1"/>
<path d="M108.685 58.3952H69.6207V108.287H82.4053V94.9589H108.685C119.978 94.9589 127.72 87.8315 127.72 76.7127C127.72 65.5939 119.978 58.3952 108.685 58.3952ZM105.133 84.1965H82.4053V69.1576H105.133C108.969 69.1576 114.935 69.1576 114.935 76.7127C114.935 84.1965 108.969 84.1965 105.133 84.1965Z" fill="#F1F1F1"/>
<path d="M175.2 108.287H189.334L163.623 58.3952H146.363L120.723 108.287H134.786L140.113 97.6674H169.873L175.2 108.287ZM144.872 88.1166L155.029 67.8747L165.114 88.1166H144.872Z" fill="#F1F1F1"/>
<path d="M185.992 83.27C185.992 99.8769 195.367 109 217.243 109C237.059 109 247.003 101.374 248.281 86.9049H235.284C234.076 95.0302 227.826 98.2376 217.243 98.2376C204.316 98.2376 198.776 93.5335 198.776 83.27C198.776 73.0777 204.245 68.4449 217.243 68.4449C227.897 68.4449 234.076 71.581 235.284 79.635H248.281C247.003 65.2375 237.059 57.6825 217.243 57.6825C195.367 57.6825 185.992 66.7343 185.992 83.27Z" fill="#F1F1F1"/>
<path d="M305.501 68.5874V58.3952H252.942V108.287H305.501V98.095H265.726V87.9741H305.501V78.7084H265.726V68.5874H305.501Z" fill="#F1F1F1"/>
<path d="M309.454 91.1101C309.454 105.508 321.6 109 341.984 109C360.38 109 372.951 106.292 372.951 92.9633C372.951 80.3477 360.806 79.2786 341.203 78.2095C326.714 77.3542 323.73 76.6414 323.73 72.7926C323.73 69.0864 326.714 67.8747 339.285 67.8747C352.567 67.8747 358.036 69.2289 358.036 74.717H370.82C370.82 62.3866 359.456 57.6825 340.706 57.6825C322.097 57.6825 310.946 61.1749 310.946 72.1511C310.946 83.3412 319.54 86.7624 341.203 87.7602C357.326 88.5443 360.167 89.257 360.167 93.3909C360.167 97.311 356.118 98.8078 342.694 98.8078C326.5 98.8078 322.239 96.3844 322.239 91.1101H309.454Z" fill="#F1F1F1"/>
</svg>
