<svg width="653" height="40" viewBox="0 0 653 40" fill="none" xmlns="http://www.w3.org/2000/svg">
<path d="M0.2854 25.824C0.2854 36.894 9.2494 39.54 24.7474 39.54C39.4894 39.54 48.5614 37.218 48.5614 26.958C48.5614 17.184 39.3274 16.266 24.4234 15.564C14.8654 15.132 13.0294 14.862 13.0294 12.648C13.0294 10.542 14.8654 9.89397 22.9114 9.89397C31.3894 9.89397 35.0614 10.65 35.0614 13.728H46.9414C46.9414 4.22397 38.5174 0.659973 23.9914 0.659973C9.4654 0.659973 1.1494 3.73797 1.1494 12.054C1.1494 20.748 7.6834 23.448 24.4234 24.096C35.0074 24.528 36.6814 24.852 36.6814 27.282C36.6814 29.442 34.5214 30.306 25.2874 30.306C14.7034 30.306 12.1654 28.74 12.1654 25.824H0.2854Z" fill="#F1F1F1"/>
<path d="M91.0413 10.434V1.19997H51.0813V39H91.0413V29.766H62.9613V24.15H91.0413V16.05H62.9613V10.434H91.0413Z" fill="#F1F1F1"/>
<path d="M130.413 1.19997V26.796L109.407 1.19997H93.5852V39H105.465V13.296L126.525 39H142.293V1.19997H130.413Z" fill="#F1F1F1"/>
<path d="M191.112 1.19997H144.672V11.244H161.952V39H173.832V11.244H191.112V1.19997Z" fill="#F1F1F1"/>
<path d="M205.397 1.19997H193.517V39H205.397V1.19997Z" fill="#F1F1F1"/>
<path d="M248.612 10.434V1.19997H208.652V39H248.612V29.766H220.532V24.15H248.612V16.05H220.532V10.434H248.612Z" fill="#F1F1F1"/>
<path d="M287.983 1.19997V26.796L266.977 1.19997H251.155V39H263.035V13.296L284.095 39H299.863V1.19997H287.983Z" fill="#F1F1F1"/>
<path d="M348.682 1.19997H302.242V11.244H319.522V39H331.402V11.244H348.682V1.19997Z" fill="#F1F1F1"/>
<path d="M374.172 25.824C374.172 36.894 383.136 39.54 398.634 39.54C413.376 39.54 422.448 37.218 422.448 26.958C422.448 17.184 413.214 16.266 398.31 15.564C388.752 15.132 386.916 14.862 386.916 12.648C386.916 10.542 388.752 9.89397 396.798 9.89397C405.276 9.89397 408.948 10.65 408.948 13.728H420.828C420.828 4.22397 412.404 0.659973 397.878 0.659973C383.352 0.659973 375.036 3.73797 375.036 12.054C375.036 20.748 381.57 23.448 398.31 24.096C408.894 24.528 410.568 24.852 410.568 27.282C410.568 29.442 408.408 30.306 399.174 30.306C388.59 30.306 386.052 28.74 386.052 25.824H374.172Z" fill="#F1F1F1"/>
<path d="M454.668 1.19997H424.968V39H436.848V29.55H454.668C463.254 29.55 469.14 23.772 469.14 15.348C469.14 6.92397 463.254 1.19997 454.668 1.19997ZM451.968 19.506H436.848V11.244H451.968C454.182 11.244 457.26 11.244 457.26 15.348C457.26 19.506 454.182 19.506 451.968 19.506Z" fill="#F1F1F1"/>
<path d="M502.6 39H515.668L498.118 1.19997H481.108L463.504 39H476.626L479.866 31.602H499.36L502.6 39ZM483.646 23.07L489.64 9.51597L495.58 23.07H483.646Z" fill="#F1F1F1"/>
<path d="M512.547 20.046C512.547 32.898 519.675 39.54 536.307 39.54C551.427 39.54 559.149 33.978 559.905 22.53H547.809C547.107 27.39 543.327 29.496 536.307 29.496C527.289 29.496 524.427 25.932 524.427 20.046C524.427 14.214 527.235 10.704 536.307 10.704C543.327 10.704 547.107 12.756 547.809 17.562H559.905C559.149 6.16797 551.427 0.659973 536.307 0.659973C519.675 0.659973 512.547 7.24798 512.547 20.046Z" fill="#F1F1F1"/>
<path d="M602.406 10.434V1.19997H562.447V39H602.406V29.766H574.327V24.15H602.406V16.05H574.327V10.434H602.406Z" fill="#F1F1F1"/>
<path d="M604.41 25.824C604.41 36.894 613.374 39.54 628.872 39.54C643.614 39.54 652.686 37.218 652.686 26.958C652.686 17.184 643.452 16.266 628.548 15.564C618.99 15.132 617.154 14.862 617.154 12.648C617.154 10.542 618.99 9.89397 627.036 9.89397C635.514 9.89397 639.186 10.65 639.186 13.728H651.066C651.066 4.22397 642.642 0.659973 628.116 0.659973C613.59 0.659973 605.274 3.73797 605.274 12.054C605.274 20.748 611.808 23.448 628.548 24.096C639.132 24.528 640.806 24.852 640.806 27.282C640.806 29.442 638.646 30.306 629.412 30.306C618.828 30.306 616.29 28.74 616.29 25.824H604.41Z" fill="#F1F1F1"/>
</svg>
